<mxfile host="www.draw.io" modified="2019-11-15T14:00:31.769Z" agent="Mozilla/5.0 (Windows NT 10.0; Win64; x64) AppleWebKit/537.36 (KHTML, like Gecko) Chrome/78.0.3904.97 Safari/537.36" etag="sHSlvPtbWb9JIyE0-AGS" version="12.2.6" type="github" pages="1">
  <diagram id="7YM1VQAHrhUaZr28ooBR" name="Page-1">
    <mxGraphModel dx="1376" dy="3176" grid="1" gridSize="10" guides="1" tooltips="1" connect="1" arrows="1" fold="1" page="1" pageScale="1" pageWidth="827" pageHeight="1169" math="0" shadow="0">
      <root>
        <mxCell id="0"/>
        <mxCell id="1" parent="0"/>
        <mxCell id="5757aq0MMxg5EuK361VA-1" value="" style="rounded=0;whiteSpace=wrap;html=1;" vertex="1" parent="1">
          <mxGeometry x="80" y="20" width="650" height="1140" as="geometry"/>
        </mxCell>
        <mxCell id="QP17qAJzJCDweGxcluYt-1" value="Operator" style="shape=umlActor;verticalLabelPosition=bottom;labelBackgroundColor=#ffffff;verticalAlign=top;html=1;outlineConnect=0;" parent="1" vertex="1">
          <mxGeometry x="20" y="230" width="40" height="70" as="geometry"/>
        </mxCell>
        <mxCell id="QP17qAJzJCDweGxcluYt-2" value="End User" style="shape=umlActor;verticalLabelPosition=bottom;labelBackgroundColor=#ffffff;verticalAlign=top;html=1;outlineConnect=0;" parent="1" vertex="1">
          <mxGeometry x="20" y="910" width="40" height="70" as="geometry"/>
        </mxCell>
        <mxCell id="QP17qAJzJCDweGxcluYt-12" value="Generate Session key" style="ellipse;whiteSpace=wrap;html=1;" parent="1" vertex="1">
          <mxGeometry x="295" y="245" width="120" height="80" as="geometry"/>
        </mxCell>
        <mxCell id="QP17qAJzJCDweGxcluYt-13" value="Domain Controller" style="shape=umlActor;verticalLabelPosition=bottom;labelBackgroundColor=#ffffff;verticalAlign=top;html=1;outlineConnect=0;" parent="1" vertex="1">
          <mxGeometry x="750" y="100" width="40" height="70" as="geometry"/>
        </mxCell>
        <mxCell id="QP17qAJzJCDweGxcluYt-14" value="Log in&amp;nbsp;" style="ellipse;whiteSpace=wrap;html=1;" parent="1" vertex="1">
          <mxGeometry x="290" y="70" width="120" height="80" as="geometry"/>
        </mxCell>
        <mxCell id="QP17qAJzJCDweGxcluYt-15" value="Verify LDAP details" style="ellipse;whiteSpace=wrap;html=1;" parent="1" vertex="1">
          <mxGeometry x="490" y="55" width="120" height="80" as="geometry"/>
        </mxCell>
        <mxCell id="QP17qAJzJCDweGxcluYt-16" value="" style="endArrow=none;html=1;exitX=0.996;exitY=0.431;exitDx=0;exitDy=0;exitPerimeter=0;" parent="1" source="QP17qAJzJCDweGxcluYt-15" edge="1">
          <mxGeometry width="50" height="50" relative="1" as="geometry">
            <mxPoint x="700" y="175" as="sourcePoint"/>
            <mxPoint x="750" y="120" as="targetPoint"/>
          </mxGeometry>
        </mxCell>
        <mxCell id="QP17qAJzJCDweGxcluYt-22" value="&amp;lt;&amp;lt;Includes&amp;gt;&amp;gt;" style="endArrow=classic;html=1;entryX=0;entryY=0.5;entryDx=0;entryDy=0;dashed=1;exitX=1;exitY=0.5;exitDx=0;exitDy=0;" parent="1" target="QP17qAJzJCDweGxcluYt-15" edge="1" source="QP17qAJzJCDweGxcluYt-14">
          <mxGeometry width="50" height="50" relative="1" as="geometry">
            <mxPoint x="413" y="90" as="sourcePoint"/>
            <mxPoint x="463" y="40" as="targetPoint"/>
          </mxGeometry>
        </mxCell>
        <mxCell id="QP17qAJzJCDweGxcluYt-23" value="Display log in error&amp;nbsp;" style="ellipse;whiteSpace=wrap;html=1;" parent="1" vertex="1">
          <mxGeometry x="495" y="150" width="120" height="80" as="geometry"/>
        </mxCell>
        <mxCell id="QP17qAJzJCDweGxcluYt-24" value="&amp;lt;&amp;lt;Extends&amp;gt;&amp;gt;" style="endArrow=classic;html=1;dashed=1;exitX=-0.032;exitY=0.442;exitDx=0;exitDy=0;exitPerimeter=0;entryX=0.901;entryY=0.858;entryDx=0;entryDy=0;entryPerimeter=0;" parent="1" source="QP17qAJzJCDweGxcluYt-23" target="QP17qAJzJCDweGxcluYt-14" edge="1">
          <mxGeometry width="50" height="50" relative="1" as="geometry">
            <mxPoint x="413" y="226.5" as="sourcePoint"/>
            <mxPoint x="463" y="176.5" as="targetPoint"/>
          </mxGeometry>
        </mxCell>
        <mxCell id="QP17qAJzJCDweGxcluYt-48" value="" style="endArrow=none;html=1;entryX=0;entryY=0.5;entryDx=0;entryDy=0;exitX=0.5;exitY=0.5;exitDx=0;exitDy=0;exitPerimeter=0;" parent="1" source="QP17qAJzJCDweGxcluYt-1" target="QP17qAJzJCDweGxcluYt-14" edge="1">
          <mxGeometry width="50" height="50" relative="1" as="geometry">
            <mxPoint x="10" y="950" as="sourcePoint"/>
            <mxPoint x="60" y="900" as="targetPoint"/>
          </mxGeometry>
        </mxCell>
        <mxCell id="QP17qAJzJCDweGxcluYt-50" value="Send Session Key to user" style="ellipse;whiteSpace=wrap;html=1;" parent="1" vertex="1">
          <mxGeometry x="495" y="245" width="120" height="80" as="geometry"/>
        </mxCell>
        <mxCell id="QP17qAJzJCDweGxcluYt-51" value="Send via Email" style="ellipse;whiteSpace=wrap;html=1;" parent="1" vertex="1">
          <mxGeometry x="565" y="355" width="120" height="80" as="geometry"/>
        </mxCell>
        <mxCell id="QP17qAJzJCDweGxcluYt-52" value="Send via Ticketing system" style="ellipse;whiteSpace=wrap;html=1;" parent="1" vertex="1">
          <mxGeometry x="420" y="355" width="120" height="80" as="geometry"/>
        </mxCell>
        <mxCell id="QP17qAJzJCDweGxcluYt-54" value="" style="endArrow=block;html=1;exitX=0.5;exitY=0;exitDx=0;exitDy=0;endFill=0;" parent="1" edge="1">
          <mxGeometry width="50" height="50" relative="1" as="geometry">
            <mxPoint x="478.5" y="355.0000000000002" as="sourcePoint"/>
            <mxPoint x="555" y="325" as="targetPoint"/>
            <Array as="points">
              <mxPoint x="479" y="345"/>
              <mxPoint x="505" y="345"/>
              <mxPoint x="555" y="345"/>
            </Array>
          </mxGeometry>
        </mxCell>
        <mxCell id="QP17qAJzJCDweGxcluYt-55" value="" style="endArrow=block;html=1;exitX=0.5;exitY=0;exitDx=0;exitDy=0;entryX=0.5;entryY=1;entryDx=0;entryDy=0;endFill=0;" parent="1" source="QP17qAJzJCDweGxcluYt-51" target="QP17qAJzJCDweGxcluYt-50" edge="1">
          <mxGeometry width="50" height="50" relative="1" as="geometry">
            <mxPoint x="585" y="344.5" as="sourcePoint"/>
            <mxPoint x="641.9599999999999" y="314.82000000000005" as="targetPoint"/>
            <Array as="points">
              <mxPoint x="625" y="345"/>
              <mxPoint x="555" y="345"/>
            </Array>
          </mxGeometry>
        </mxCell>
        <mxCell id="QP17qAJzJCDweGxcluYt-56" value="&amp;lt;&amp;lt;Includes&amp;gt;&amp;gt;" style="endArrow=classic;html=1;exitX=1.032;exitY=0.468;exitDx=0;exitDy=0;exitPerimeter=0;entryX=0;entryY=0.5;entryDx=0;entryDy=0;dashed=1;" parent="1" source="QP17qAJzJCDweGxcluYt-12" target="QP17qAJzJCDweGxcluYt-50" edge="1">
          <mxGeometry x="-0.0581" y="9" width="50" height="50" relative="1" as="geometry">
            <mxPoint x="445" y="285" as="sourcePoint"/>
            <mxPoint x="495" y="235" as="targetPoint"/>
            <mxPoint as="offset"/>
          </mxGeometry>
        </mxCell>
        <mxCell id="QP17qAJzJCDweGxcluYt-57" value="" style="endArrow=none;html=1;entryX=0;entryY=0.5;entryDx=0;entryDy=0;exitX=0.5;exitY=0.5;exitDx=0;exitDy=0;exitPerimeter=0;endFill=0;" parent="1" source="QP17qAJzJCDweGxcluYt-1" target="QP17qAJzJCDweGxcluYt-12" edge="1">
          <mxGeometry width="50" height="50" relative="1" as="geometry">
            <mxPoint x="45" y="-60" as="sourcePoint"/>
            <mxPoint x="245" y="275" as="targetPoint"/>
          </mxGeometry>
        </mxCell>
        <mxCell id="QP17qAJzJCDweGxcluYt-63" style="edgeStyle=orthogonalEdgeStyle;rounded=0;orthogonalLoop=1;jettySize=auto;html=1;exitX=0.5;exitY=0.5;exitDx=0;exitDy=0;exitPerimeter=0;endArrow=none;endFill=0;" parent="1" source="QP17qAJzJCDweGxcluYt-59" target="QP17qAJzJCDweGxcluYt-51" edge="1">
          <mxGeometry relative="1" as="geometry"/>
        </mxCell>
        <mxCell id="QP17qAJzJCDweGxcluYt-59" value="Outlook client" style="shape=umlActor;verticalLabelPosition=bottom;labelBackgroundColor=#ffffff;verticalAlign=top;html=1;outlineConnect=0;" parent="1" vertex="1">
          <mxGeometry x="755" y="335" width="40" height="70" as="geometry"/>
        </mxCell>
        <mxCell id="QP17qAJzJCDweGxcluYt-64" style="edgeStyle=orthogonalEdgeStyle;rounded=0;orthogonalLoop=1;jettySize=auto;html=1;exitX=0.5;exitY=0.5;exitDx=0;exitDy=0;exitPerimeter=0;endArrow=none;endFill=0;" parent="1" source="QP17qAJzJCDweGxcluYt-61" edge="1">
          <mxGeometry relative="1" as="geometry">
            <mxPoint x="478.5" y="435.0000000000002" as="targetPoint"/>
          </mxGeometry>
        </mxCell>
        <mxCell id="QP17qAJzJCDweGxcluYt-61" value="Topdesk" style="shape=umlActor;verticalLabelPosition=bottom;labelBackgroundColor=#ffffff;verticalAlign=top;html=1;outlineConnect=0;" parent="1" vertex="1">
          <mxGeometry x="755" y="475" width="40" height="70" as="geometry"/>
        </mxCell>
        <mxCell id="QP17qAJzJCDweGxcluYt-66" value="Verify Session Key&amp;nbsp;" style="ellipse;whiteSpace=wrap;html=1;" parent="1" vertex="1">
          <mxGeometry x="420" y="1030" width="120" height="80" as="geometry"/>
        </mxCell>
        <mxCell id="QP17qAJzJCDweGxcluYt-67" value="Display Invalid session key error" style="ellipse;whiteSpace=wrap;html=1;" parent="1" vertex="1">
          <mxGeometry x="120" y="1030" width="120" height="80" as="geometry"/>
        </mxCell>
        <mxCell id="QP17qAJzJCDweGxcluYt-68" value="Make Remote connction" style="ellipse;whiteSpace=wrap;html=1;" parent="1" vertex="1">
          <mxGeometry x="200" y="650" width="120" height="80" as="geometry"/>
        </mxCell>
        <mxCell id="QP17qAJzJCDweGxcluYt-69" value="" style="endArrow=none;html=1;exitX=0.5;exitY=0.5;exitDx=0;exitDy=0;exitPerimeter=0;entryX=0;entryY=0;entryDx=0;entryDy=0;endFill=0;" parent="1" source="QP17qAJzJCDweGxcluYt-1" target="QP17qAJzJCDweGxcluYt-68" edge="1">
          <mxGeometry width="50" height="50" relative="1" as="geometry">
            <mxPoint x="125" y="610" as="sourcePoint"/>
            <mxPoint x="180" y="490" as="targetPoint"/>
          </mxGeometry>
        </mxCell>
        <mxCell id="QP17qAJzJCDweGxcluYt-70" value="Access remote file system" style="ellipse;whiteSpace=wrap;html=1;" parent="1" vertex="1">
          <mxGeometry x="430" y="630" width="120" height="80" as="geometry"/>
        </mxCell>
        <mxCell id="QP17qAJzJCDweGxcluYt-71" value="&amp;lt;&amp;lt;Extends&amp;gt;&amp;gt;" style="endArrow=classic;html=1;exitX=0.5;exitY=1;exitDx=0;exitDy=0;dashed=1;entryX=0.5;entryY=0;entryDx=0;entryDy=0;" parent="1" source="QP17qAJzJCDweGxcluYt-79" target="QP17qAJzJCDweGxcluYt-68" edge="1">
          <mxGeometry x="-0.2873" y="6" width="50" height="50" relative="1" as="geometry">
            <mxPoint x="483" y="755" as="sourcePoint"/>
            <mxPoint x="480" y="620" as="targetPoint"/>
            <Array as="points"/>
            <mxPoint y="-1" as="offset"/>
          </mxGeometry>
        </mxCell>
        <mxCell id="QP17qAJzJCDweGxcluYt-72" value="&amp;lt;&amp;lt;Extends&amp;gt;&amp;gt;" style="endArrow=classic;html=1;exitX=0;exitY=0.5;exitDx=0;exitDy=0;dashed=1;entryX=1;entryY=0.5;entryDx=0;entryDy=0;" parent="1" source="QP17qAJzJCDweGxcluYt-70" target="QP17qAJzJCDweGxcluYt-68" edge="1">
          <mxGeometry width="50" height="50" relative="1" as="geometry">
            <mxPoint x="543" y="745" as="sourcePoint"/>
            <mxPoint x="490" y="650" as="targetPoint"/>
            <Array as="points">
              <mxPoint x="390" y="650"/>
            </Array>
          </mxGeometry>
        </mxCell>
        <mxCell id="QP17qAJzJCDweGxcluYt-73" value="Prompt for customer approval" style="ellipse;whiteSpace=wrap;html=1;" parent="1" vertex="1">
          <mxGeometry x="430" y="780" width="120" height="80" as="geometry"/>
        </mxCell>
        <mxCell id="QP17qAJzJCDweGxcluYt-74" value="&amp;lt;&amp;lt;Includes&amp;gt;&amp;gt;" style="endArrow=classic;html=1;dashed=1;exitX=0.5;exitY=1;exitDx=0;exitDy=0;" parent="1" source="QP17qAJzJCDweGxcluYt-70" target="QP17qAJzJCDweGxcluYt-73" edge="1">
          <mxGeometry width="50" height="50" relative="1" as="geometry">
            <mxPoint x="570" y="825" as="sourcePoint"/>
            <mxPoint x="580" y="885" as="targetPoint"/>
          </mxGeometry>
        </mxCell>
        <mxCell id="QP17qAJzJCDweGxcluYt-75" value="&amp;lt;&amp;lt;Includes&amp;gt;&amp;gt;" style="endArrow=classic;html=1;dashed=1;exitX=0.958;exitY=0.788;exitDx=0;exitDy=0;exitPerimeter=0;entryX=0;entryY=0;entryDx=0;entryDy=0;" parent="1" source="QP17qAJzJCDweGxcluYt-68" target="QP17qAJzJCDweGxcluYt-73" edge="1">
          <mxGeometry width="50" height="50" relative="1" as="geometry">
            <mxPoint x="430" y="710" as="sourcePoint"/>
            <mxPoint x="490" y="760" as="targetPoint"/>
            <Array as="points"/>
          </mxGeometry>
        </mxCell>
        <mxCell id="QP17qAJzJCDweGxcluYt-76" value="&amp;lt;&amp;lt;Extends&amp;gt;&amp;gt;" style="endArrow=classic;html=1;dashed=1;exitX=0;exitY=0.563;exitDx=0;exitDy=0;exitPerimeter=0;entryX=1.017;entryY=0.625;entryDx=0;entryDy=0;entryPerimeter=0;" parent="1" source="QP17qAJzJCDweGxcluYt-78" target="QP17qAJzJCDweGxcluYt-73" edge="1">
          <mxGeometry width="50" height="50" relative="1" as="geometry">
            <mxPoint x="624.5" y="860.9999999999998" as="sourcePoint"/>
            <mxPoint x="529.9264068711918" y="829.2842712474612" as="targetPoint"/>
          </mxGeometry>
        </mxCell>
        <mxCell id="QP17qAJzJCDweGxcluYt-78" value="Display declined approval error" style="ellipse;whiteSpace=wrap;html=1;" parent="1" vertex="1">
          <mxGeometry x="600" y="850" width="120" height="80" as="geometry"/>
        </mxCell>
        <mxCell id="QP17qAJzJCDweGxcluYt-79" value="Transfer remote connection" style="ellipse;whiteSpace=wrap;html=1;" parent="1" vertex="1">
          <mxGeometry x="285" y="504" width="120" height="80" as="geometry"/>
        </mxCell>
        <mxCell id="QP17qAJzJCDweGxcluYt-84" value="" style="endArrow=none;html=1;entryX=0;entryY=0.5;entryDx=0;entryDy=0;exitX=0.5;exitY=0.5;exitDx=0;exitDy=0;exitPerimeter=0;endFill=0;" parent="1" source="QP17qAJzJCDweGxcluYt-2" target="QP17qAJzJCDweGxcluYt-58" edge="1">
          <mxGeometry width="50" height="50" relative="1" as="geometry">
            <mxPoint x="80" y="940" as="sourcePoint"/>
            <mxPoint x="70" y="980" as="targetPoint"/>
            <Array as="points">
              <mxPoint x="120" y="950"/>
            </Array>
          </mxGeometry>
        </mxCell>
        <mxCell id="QP17qAJzJCDweGxcluYt-85" value="&amp;lt;&amp;lt;Extends&amp;gt;&amp;gt;" style="endArrow=classic;html=1;dashed=1;entryX=0.592;entryY=-0.034;entryDx=0;entryDy=0;entryPerimeter=0;" parent="1" source="QP17qAJzJCDweGxcluYt-90" target="QP17qAJzJCDweGxcluYt-58" edge="1">
          <mxGeometry x="0.1508" y="-12" width="50" height="50" relative="1" as="geometry">
            <mxPoint x="280" y="870" as="sourcePoint"/>
            <mxPoint x="370" y="680" as="targetPoint"/>
            <Array as="points"/>
            <mxPoint x="6" y="-10" as="offset"/>
          </mxGeometry>
        </mxCell>
        <mxCell id="QP17qAJzJCDweGxcluYt-58" value="Request Support Session" style="ellipse;whiteSpace=wrap;html=1;" parent="1" vertex="1">
          <mxGeometry x="240" y="920" width="120" height="80" as="geometry"/>
        </mxCell>
        <mxCell id="QP17qAJzJCDweGxcluYt-87" value="&amp;lt;&amp;lt;Extends&amp;gt;&amp;gt;" style="endArrow=classic;html=1;exitX=0.5;exitY=0;exitDx=0;exitDy=0;entryX=0.242;entryY=0.938;entryDx=0;entryDy=0;entryPerimeter=0;dashed=1;" parent="1" source="QP17qAJzJCDweGxcluYt-67" target="QP17qAJzJCDweGxcluYt-58" edge="1">
          <mxGeometry width="50" height="50" relative="1" as="geometry">
            <mxPoint x="210" y="1085" as="sourcePoint"/>
            <mxPoint x="220" y="1020" as="targetPoint"/>
          </mxGeometry>
        </mxCell>
        <mxCell id="QP17qAJzJCDweGxcluYt-88" value="&amp;lt;&amp;lt;Includes&amp;gt;&amp;gt;" style="endArrow=classic;html=1;exitX=1;exitY=1;exitDx=0;exitDy=0;entryX=0;entryY=0;entryDx=0;entryDy=0;dashed=1;" parent="1" source="QP17qAJzJCDweGxcluYt-58" target="QP17qAJzJCDweGxcluYt-66" edge="1">
          <mxGeometry width="50" height="50" relative="1" as="geometry">
            <mxPoint x="273" y="1050" as="sourcePoint"/>
            <mxPoint x="323" y="1000" as="targetPoint"/>
          </mxGeometry>
        </mxCell>
        <mxCell id="QP17qAJzJCDweGxcluYt-90" value="Connect to requested session" style="ellipse;whiteSpace=wrap;html=1;" parent="1" vertex="1">
          <mxGeometry x="285" y="780" width="120" height="80" as="geometry"/>
        </mxCell>
        <mxCell id="QP17qAJzJCDweGxcluYt-91" value="Connect via Hostname" style="ellipse;whiteSpace=wrap;html=1;" parent="1" vertex="1">
          <mxGeometry x="140" y="790" width="120" height="80" as="geometry"/>
        </mxCell>
        <mxCell id="QP17qAJzJCDweGxcluYt-96" value="" style="edgeStyle=elbowEdgeStyle;elbow=vertical;endArrow=block;html=1;entryX=0.5;entryY=1;entryDx=0;entryDy=0;exitX=0.5;exitY=0;exitDx=0;exitDy=0;endFill=0;" parent="1" source="QP17qAJzJCDweGxcluYt-91" target="QP17qAJzJCDweGxcluYt-68" edge="1">
          <mxGeometry width="50" height="50" relative="1" as="geometry">
            <mxPoint x="100" y="835" as="sourcePoint"/>
            <mxPoint x="150" y="785" as="targetPoint"/>
            <Array as="points">
              <mxPoint x="230" y="760"/>
              <mxPoint x="150" y="750"/>
            </Array>
          </mxGeometry>
        </mxCell>
        <mxCell id="QP17qAJzJCDweGxcluYt-97" value="" style="edgeStyle=elbowEdgeStyle;elbow=vertical;endArrow=block;html=1;exitX=0.5;exitY=0;exitDx=0;exitDy=0;entryX=0.5;entryY=1;entryDx=0;entryDy=0;endFill=0;" parent="1" source="QP17qAJzJCDweGxcluYt-90" target="QP17qAJzJCDweGxcluYt-68" edge="1">
          <mxGeometry width="50" height="50" relative="1" as="geometry">
            <mxPoint x="110" y="845" as="sourcePoint"/>
            <mxPoint x="180" y="740" as="targetPoint"/>
            <Array as="points">
              <mxPoint x="300" y="760"/>
              <mxPoint x="210" y="750"/>
            </Array>
          </mxGeometry>
        </mxCell>
      </root>
    </mxGraphModel>
  </diagram>
</mxfile>
